<?xml version="1.0" standalone="no"?>
<!DOCTYPE svg PUBLIC "-//W3C//DTD SVG 20010904//EN"
 "http://www.w3.org/TR/2001/REC-SVG-20010904/DTD/svg10.dtd">
<svg version="1.0" xmlns="http://www.w3.org/2000/svg"
 width="1276.000000pt" height="256.000000pt" viewBox="0 0 1276.000000 256.000000"
 preserveAspectRatio="xMidYMid meet">

<g transform="translate(0.000000,256.000000) scale(0.100000,-0.100000)"
fill="#000000" stroke="none">
<path d="M1187 2362 c-14 -15 -17 -42 -17 -154 0 -118 2 -137 18 -151 24 -22
45 -21 65 1 14 15 17 42 17 154 0 118 -2 137 -18 151 -24 22 -45 21 -65 -1z"/>
<path d="M2907 2344 c-4 -4 -7 -479 -7 -1056 l0 -1048 50 0 50 0 -2 1053 -3
1052 -40 3 c-23 2 -44 0 -48 -4z"/>
<path d="M1915 2098 c-30 -16 -205 -197 -205 -211 0 -22 30 -57 49 -57 9 0 65
49 124 109 111 112 118 127 79 159 -19 14 -21 15 -47 0z"/>
<path d="M482 2078 c-27 -27 -11 -55 86 -151 96 -96 124 -111 150 -85 29 29
13 60 -80 154 -93 96 -126 112 -156 82z"/>
<path d="M1155 1874 c-203 -28 -387 -184 -446 -377 -27 -88 -26 -233 2 -318
21 -63 70 -159 117 -229 47 -70 91 -176 98 -235 4 -33 11 -66 17 -72 14 -19
550 -19 564 0 6 6 13 40 16 74 6 61 51 180 89 235 10 14 18 30 18 35 0 4 13
27 29 51 16 23 44 82 61 130 29 78 33 98 32 190 0 57 -5 109 -10 115 -5 7 -12
26 -16 42 -23 98 -145 241 -251 295 -98 50 -229 76 -320 64z m168 -109 c175
-45 299 -181 330 -358 21 -123 -1 -185 -159 -467 -28 -49 -52 -117 -60 -167
-4 -24 -9 -43 -13 -44 -70 -6 -394 -2 -396 6 -34 115 -56 167 -114 264 -122
205 -148 302 -117 434 21 87 47 138 104 200 116 124 271 172 425 132z"/>
<path d="M1119 1656 c-213 -82 -288 -320 -157 -502 29 -40 36 -45 68 -42 30 3
35 7 38 32 3 19 -4 37 -21 55 -13 14 -31 46 -40 71 -35 95 -13 177 67 247 84
74 189 79 283 12 44 -31 72 -36 91 -17 34 34 -4 86 -93 129 -61 29 -180 36
-236 15z"/>
<path d="M6345 1787 c-133 -44 -226 -147 -272 -299 -48 -163 -31 -392 39 -532
24 -47 102 -132 139 -152 128 -66 313 -58 464 19 63 32 135 84 135 98 0 17
-60 103 -85 121 -22 17 -26 16 -113 -28 -77 -39 -99 -46 -150 -46 -69 0 -111
18 -146 64 -46 61 -60 121 -59 259 1 224 52 319 170 319 92 0 143 -54 151
-160 2 -34 10 -60 20 -67 19 -15 110 -17 145 -4 39 15 67 70 67 131 0 102 -70
196 -189 253 -58 27 -77 31 -170 34 -69 2 -120 -2 -146 -10z"/>
<path d="M5398 1773 c-8 -10 -36 -83 -62 -163 -26 -80 -96 -295 -157 -479 -74
-226 -106 -338 -99 -345 5 -5 53 -10 107 -10 113 -1 107 -7 147 132 l22 77
158 0 159 0 26 -75 c22 -62 57 -130 65 -130 1 0 28 -5 59 -10 39 -8 68 -8 94
0 72 19 72 11 11 197 -31 92 -83 256 -117 363 -34 107 -67 203 -72 212 -5 10
-9 25 -9 33 0 8 -14 58 -31 109 -37 109 -31 106 -189 106 -80 0 -100 -3 -112
-17z m132 -240 c0 -9 4 -30 10 -47 21 -67 80 -289 80 -302 0 -11 -20 -14 -99
-14 -55 0 -102 4 -106 9 -3 5 1 27 9 48 13 32 59 205 80 296 7 29 26 37 26 10z"/>
<path d="M7006 1781 c-3 -5 -6 -231 -6 -502 -1 -465 0 -494 17 -501 25 -9 185
-10 200 0 9 6 13 64 15 212 l3 205 150 0 150 0 3 -206 c2 -204 3 -207 25 -213
29 -8 165 -7 195 0 l22 6 0 498 0 498 -22 6 c-42 11 -184 6 -201 -6 -14 -11
-17 -38 -19 -196 l-3 -183 -142 0 c-79 0 -147 1 -153 1 -6 0 -10 70 -10 189
l0 189 -31 6 c-47 9 -187 7 -193 -3z"/>
<path d="M8847 1783 c-4 -3 -7 -230 -7 -504 l0 -497 23 -6 c29 -8 171 -8 191
0 14 5 16 31 16 184 0 133 3 179 13 183 21 8 99 -4 121 -18 11 -8 29 -29 38
-47 15 -30 67 -172 82 -223 10 -33 54 -73 93 -84 47 -13 116 2 161 36 l34 25
-24 27 c-28 30 -53 82 -78 162 -24 73 -36 95 -84 146 l-38 41 28 15 c46 24 91
77 120 141 23 52 26 67 21 130 -6 77 -41 168 -80 204 -30 28 -114 69 -167 81
-49 12 -453 15 -463 4z m415 -197 c64 -42 74 -167 19 -220 -25 -24 -40 -29
-110 -35 -50 -4 -85 -3 -91 3 -12 12 -14 259 -2 270 14 15 156 1 184 -18z"/>
<path d="M10298 1778 c-10 -8 -74 -184 -159 -443 -77 -236 -149 -453 -159
-482 -25 -74 -20 -78 102 -78 l102 0 29 95 c16 52 34 101 39 108 8 9 53 12
163 12 l152 0 22 -66 c39 -119 59 -142 139 -157 42 -8 132 11 139 29 3 8 -17
83 -45 167 -27 84 -80 247 -117 362 -36 116 -71 218 -76 227 -5 10 -9 27 -9
38 0 11 -4 28 -9 38 -6 9 -17 42 -26 73 -9 30 -20 62 -25 69 -12 20 -238 27
-262 8z m137 -295 c9 -38 30 -114 46 -171 43 -151 48 -142 -71 -142 -112 0
-113 0 -86 76 7 22 28 99 46 172 18 72 36 132 40 132 4 0 15 -30 25 -67z"/>
<path d="M11007 1783 c-4 -3 -7 -230 -7 -504 0 -444 2 -498 16 -503 30 -11
190 -6 207 6 15 11 17 31 15 159 l-3 146 105 6 c122 6 196 30 256 81 86 73
126 205 104 338 -19 110 -54 168 -135 219 -75 47 -145 59 -359 59 -106 0 -196
-3 -199 -7z m383 -188 c47 -24 72 -76 72 -149 1 -123 -50 -176 -169 -176 l-63
0 0 163 c0 90 3 167 7 170 12 13 124 7 153 -8z"/>
<path d="M11873 1782 c-19 -12 -19 -992 -1 -1004 17 -10 189 -10 206 1 11 6
14 42 13 160 l-2 151 83 0 c212 1 335 77 382 237 17 60 16 175 -2 240 -29 101
-114 178 -230 208 -61 16 -426 21 -449 7z m397 -197 c37 -33 53 -76 54 -145 2
-117 -54 -173 -169 -168 l-60 3 -3 155 c-1 85 0 160 3 168 9 23 147 12 175
-13z"/>
<path d="M3484 1767 c-3 -8 -4 -52 -2 -98 l3 -84 123 -3 122 -3 0 -398 c0
-355 2 -400 16 -405 20 -8 172 -8 202 0 l22 6 0 399 0 399 68 0 c150 1 185 26
180 129 l-3 66 -363 3 c-296 2 -363 0 -368 -11z"/>
<path d="M4330 1327 c0 -421 1 -455 19 -487 32 -62 48 -65 316 -65 211 0 244
2 272 18 45 24 63 56 70 121 l6 56 -224 2 -224 3 -3 103 -3 102 161 0 160 0
10 26 c13 33 13 115 0 148 l-9 25 -158 3 -158 3 0 95 0 95 197 3 196 2 11 32
c12 34 14 110 5 146 l-6 22 -319 0 -319 0 0 -453z"/>
<path d="M8007 1773 c-4 -3 -7 -206 -7 -450 0 -483 1 -491 56 -528 26 -18 51
-20 241 -23 305 -6 350 8 374 113 20 88 30 84 -218 87 l-218 3 -3 103 -3 102
161 0 160 0 10 26 c6 14 10 47 10 74 0 27 -4 60 -10 74 l-10 26 -160 0 -161 0
3 98 3 97 191 3 c153 2 194 5 204 17 14 17 25 123 16 159 l-6 26 -314 0 c-172
0 -316 -3 -319 -7z"/>
<path d="M207 1372 c-22 -24 -21 -45 1 -65 15 -14 41 -17 145 -17 114 0 129 2
147 20 24 24 24 29 4 58 -14 21 -22 22 -148 22 -116 0 -135 -2 -149 -18z"/>
<path d="M1947 1372 c-22 -24 -21 -38 3 -62 18 -18 33 -20 148 -20 112 0 131
2 145 18 23 25 21 59 -2 72 -11 5 -78 10 -149 10 -112 0 -131 -2 -145 -18z"/>
<path d="M572 759 c-114 -118 -122 -131 -97 -159 35 -38 58 -26 164 87 56 59
101 114 101 124 0 20 -31 49 -53 49 -10 0 -61 -45 -115 -101z"/>
<path d="M1726 828 c-20 -28 -15 -35 97 -146 103 -103 132 -114 151 -59 10 26
5 33 -89 127 -105 105 -131 118 -159 78z"/>
<path d="M982 514 c-27 -18 -28 -45 -4 -67 16 -15 49 -17 249 -17 210 0 231 2
246 18 22 24 21 38 -3 62 -19 19 -33 20 -243 20 -185 0 -226 -3 -245 -16z"/>
<path d="M1068 329 c-21 -12 -24 -59 -6 -77 15 -15 291 -17 319 -2 12 7 19 21
19 40 0 19 -7 33 -19 40 -25 13 -290 13 -313 -1z"/>
</g>
</svg>
